<svg xmlns="http://www.w3.org/2000/svg" xmlns:xlink="http://www.w3.org/1999/xlink"><defs>
    <clipPath id="clip0">
      <rect width="17.0398" height="19.2" fill="white" transform="translate(0.0795898 0.919922)"/>
    </clipPath>
  
    <clipPath id="clip0">
      <rect width="20.8265" height="21.12" fill="white" transform="translate(0 0.959961)"/>
    </clipPath>
  </defs><symbol id="1-progress" viewBox="0 0 64 64">
  <path d="M27.436 2.3492C19.7903 3.52607 12.8947 7.61087 8.18897 13.7508C3.48324 19.8906 1.33115 27.611 2.18203 35.2998C3.03291 42.9886 6.82098 50.0516 12.7553 55.014C18.6897 59.9764 26.3116 62.4546 34.0296 61.9313C41.7477 61.4079 48.9652 57.9234 54.1753 52.2053C59.3854 46.4872 62.1854 38.9775 61.9905 31.2442C61.7956 23.5109 58.621 16.1518 53.1295 10.7034C47.6379 5.25497 40.254 2.13844 32.5194 2.0045" stroke="#FF8D30" stroke-width="3" stroke-linecap="round"/>
</symbol><symbol id="2-progress" viewBox="0 0 64 64">
  <path d="M4.93242 19.0638C2.18934 24.8033 1.34174 31.2663 2.51205 37.5191C3.68236 43.7719 6.80999 49.4909 11.4432 53.8499C16.0764 58.2089 21.9752 60.9823 28.2877 61.7694C34.6002 62.5566 40.9995 61.3168 46.5613 58.2291C52.1231 55.1415 56.5594 50.3658 59.2295 44.5919C61.8995 38.8179 62.6651 32.3447 61.4156 26.1073C60.166 19.8698 56.9661 14.191 52.278 9.89114C47.5899 5.59126 41.6563 2.89292 35.3344 2.18588" stroke="#FF8D30" stroke-width="3" stroke-linecap="round"/>
</symbol><symbol id="3-progress" viewBox="0 0 31 37">
  <path d="M28.8014 35.4465C29.254 31.5329 28.9313 27.5685 27.8518 23.7796C26.7723 19.9908 24.9571 16.4516 22.5098 13.3643C20.0625 10.2769 17.0311 7.70183 13.5886 5.78602C10.1461 3.87022 6.36003 2.65122 2.44646 2.19863" stroke="#FF8D30" stroke-width="3" stroke-linecap="round"/>
</symbol><symbol id="4-progress" viewBox="0 0 34 64">
  <path d="M2 62C9.95649 62 17.5871 58.8393 23.2132 53.2132C28.8393 47.5871 32 39.9565 32 32C32 24.0435 28.8393 16.4129 23.2132 10.7868C17.5871 5.16071 9.9565 2 2.00001 2" stroke="#FF8D30" stroke-width="3" stroke-linecap="round"/>
</symbol><symbol id="arrow-back" viewBox="0 0 9 19">
  <path d="M8.8116 0.400608C8.71296 0.288944 8.59577 0.200351 8.46676 0.139903C8.33775 0.0794548 8.19945 0.0483398 8.05977 0.0483398C7.92009 0.0483398 7.78179 0.0794548 7.65278 0.139903C7.52377 0.200351 7.40659 0.288944 7.30795 0.400608L0.248437 8.37194C0.169684 8.46069 0.107204 8.5661 0.0645734 8.68214C0.0219433 8.79818 0 8.92258 0 9.04821C0 9.17384 0.0219433 9.29824 0.0645734 9.41428C0.107204 9.53033 0.169684 9.63574 0.248437 9.72448L7.30795 17.6958C7.72421 18.1658 8.39533 18.1658 8.8116 17.6958C9.22786 17.2258 8.88303 16.7322 8.46676 16.2622L4.74854 12.0836L2.12914 9.01725L8.8207 1.30298C8.8207 1.30298 9.22786 0.861046 8.8116 0.400608Z"/>
</symbol><symbol id="arrow-bend" viewBox="0 0 32 16">
  <path fill-rule="evenodd" clip-rule="evenodd" d="M4 16H28C30.2091 16 32 14.2091 32 12V7C32 4.79086 30.2091 3 28 3H4V5H28C29.1046 5 30 5.89543 30 7V12C30 13.1046 29.1046 14 28 14H4V16Z" fill="white"/>
  <path d="M0 4L9 0.535898V7.4641L0 4Z" fill="white"/>
</symbol><symbol id="arrow-button" viewBox="0 0 11 12">
<path d="M10.0698 6.07495L0.157238 11.7041L0.157238 0.445786L10.0698 6.07495Z"/>
</symbol><symbol id="arrow-next" viewBox="0 0 10 19">
  <path d="M1.06949 18.3693C1.16815 18.481 1.28536 18.5695 1.41439 18.63C1.54343 18.6904 1.68176 18.7216 1.82146 18.7216C1.96117 18.7216 2.0995 18.6904 2.22853 18.63C2.35757 18.5695 2.47477 18.481 2.57344 18.3693L9.63433 10.398C9.7131 10.3092 9.77559 10.2038 9.81823 10.0878C9.86086 9.97171 9.88281 9.84732 9.88281 9.72169C9.88281 9.59605 9.86086 9.47166 9.81823 9.35561C9.77559 9.23957 9.7131 9.13416 9.63433 9.04542L2.57344 1.07408C2.15709 0.60405 1.48584 0.60405 1.06949 1.07408C0.653145 1.54411 1.32374 2.3591 1.74009 2.82913L7.82453 9.72169L1.41439 16.972C1.00654 17.4324 0.653145 17.9089 1.06949 18.3693Z"/>
</symbol><symbol id="arrow-select" viewBox="0 0 12 16">
<g opacity="0.3">
<path d="M0.63847 5.09805C0.56899 5.17667 0.513866 5.27007 0.476254 5.37289C0.438641 5.47571 0.419281 5.58595 0.419281 5.69727C0.419281 5.8086 0.438641 5.91883 0.476254 6.02165C0.513866 6.12448 0.56899 6.21787 0.63847 6.29649L5.59841 11.9231C5.65363 11.9859 5.71922 12.0357 5.79142 12.0696C5.86363 12.1036 5.94103 12.1211 6.0192 12.1211C6.09737 12.1211 6.17478 12.1036 6.24698 12.0696C6.31918 12.0357 6.38477 11.9859 6.43999 11.9231L11.3999 6.29649C11.6924 5.96472 11.6924 5.42982 11.3999 5.09805C11.1075 4.76628 10.8004 5.04112 10.5079 5.37289L7.9079 8.3364L5.99993 10.4241L1.19995 5.09079C1.19995 5.09079 0.924965 4.76628 0.63847 5.09805Z" fill="black"/>
</g>
</symbol><symbol id="arrow-tooltip" viewBox="0 0 14 8">
<path d="M7 0L13.9282 7.5H0.0717969L7 0Z" fill="#101D41"/>
</symbol><symbol id="bicycle" viewBox="0 0 25 24">
  <path d="M18.3075 21C17.4664 21 16.6442 20.7471 15.9449 20.2732C15.2456 19.7994 14.7005 19.1258 14.3786 18.3378C14.0568 17.5498 13.9726 16.6827 14.1366 15.8462C14.3007 15.0096 14.7057 14.2412 15.3005 13.6381C15.8952 13.035 16.6529 12.6243 17.4779 12.4579C18.3028 12.2915 19.1578 12.3769 19.9349 12.7033C20.7119 13.0297 21.3761 13.5824 21.8434 14.2916C22.3106 15.0008 22.5601 15.8346 22.5601 16.6875C22.5588 17.8309 22.1104 18.927 21.3132 19.7355C20.5159 20.544 19.435 20.9988 18.3075 21ZM18.3075 13.875C17.759 13.875 17.2228 14.04 16.7667 14.349C16.3106 14.658 15.9551 15.0973 15.7452 15.6112C15.5353 16.1251 15.4804 16.6906 15.5874 17.2362C15.6944 17.7818 15.9585 18.2829 16.3464 18.6762C16.7343 19.0696 17.2284 19.3374 17.7664 19.446C18.3044 19.5545 18.8621 19.4988 19.3688 19.2859C19.8756 19.073 20.3088 18.7126 20.6135 18.25C20.9182 17.7875 21.0809 17.2438 21.0809 16.6875C21.08 15.9418 20.7876 15.227 20.2676 14.6997C19.7477 14.1725 19.0428 13.8759 18.3075 13.875Z" fill="#1D2E5B"/>
  <path d="M6.10449 21C5.26342 21 4.44123 20.7471 3.7419 20.2732C3.04257 19.7994 2.4975 19.1258 2.17564 18.3378C1.85377 17.5498 1.76956 16.6827 1.93364 15.8462C2.09773 15.0096 2.50275 14.2412 3.09748 13.6381C3.69221 13.035 4.44994 12.6243 5.27486 12.4579C6.09978 12.2915 6.95482 12.3769 7.73188 12.7033C8.50893 13.0297 9.17309 13.5824 9.64037 14.2916C10.1076 15.0008 10.3571 15.8346 10.3571 16.6875C10.3558 17.8309 9.9074 18.927 9.11016 19.7355C8.31291 20.544 7.23197 20.9988 6.10449 21ZM6.10449 13.875C5.55596 13.875 5.01975 14.04 4.56367 14.349C4.10758 14.658 3.75211 15.0973 3.5422 15.6112C3.33228 16.1251 3.27736 16.6906 3.38437 17.2362C3.49139 17.7818 3.75553 18.2829 4.1434 18.6762C4.53126 19.0696 5.02544 19.3374 5.56343 19.446C6.10142 19.5545 6.65906 19.4988 7.16583 19.2859C7.67261 19.073 8.10575 18.7126 8.4105 18.25C8.71525 17.7875 8.8779 17.2438 8.8779 16.6875C8.87705 15.9418 8.58458 15.227 8.06465 14.6997C7.54472 14.1725 6.83979 13.8759 6.10449 13.875Z" fill="#1D2E5B"/>
  <path d="M15.1644 6.00005C15.3592 6.00073 15.5522 5.96225 15.7323 5.88681C15.9123 5.81138 16.0759 5.7005 16.2134 5.56058C16.351 5.42065 16.4598 5.25447 16.5336 5.07163C16.6074 4.88879 16.6448 4.69293 16.6435 4.49536C16.6457 4.29878 16.6092 4.10374 16.5361 3.92164C16.4631 3.73954 16.3549 3.57403 16.2181 3.4348C16.0812 3.29558 15.9183 3.18542 15.739 3.11077C15.5597 3.03612 15.3675 2.99848 15.1736 3.00005C14.9794 2.99943 14.7869 3.03762 14.6072 3.11243C14.4275 3.18725 14.2641 3.29722 14.1263 3.43607C13.9885 3.57493 13.8791 3.73994 13.8042 3.92169C13.7293 4.10344 13.6904 4.29838 13.6898 4.49536C13.6892 4.69234 13.7269 4.88752 13.8007 5.06974C13.8744 5.25197 13.9829 5.41767 14.1198 5.55739C14.2567 5.69712 14.4194 5.80812 14.5987 5.88407C14.7779 5.96002 14.9701 5.99943 15.1644 6.00005Z" fill="#1D2E5B"/>
  <path d="M17.3622 9.00003H15.3395C15.3063 9.00004 15.2737 8.99099 15.2452 8.97384C15.2167 8.95668 15.1932 8.93205 15.1773 8.90253L13.7101 6.17581C13.6068 5.97318 13.4578 5.79807 13.2753 5.66467C13.0928 5.53127 12.8818 5.44333 12.6596 5.40795C12.4373 5.37258 12.21 5.39077 11.996 5.46106C11.7819 5.53135 11.5872 5.65175 11.4276 5.81253L8.19843 9.11253C7.92715 9.39333 7.77316 9.76945 7.76855 10.1625C7.76855 10.9782 8.35097 11.2688 8.62369 11.4328C9.94106 12.2025 10.8688 12.7655 11.3777 13.0782C11.4047 13.0949 11.4271 13.1183 11.4427 13.1463C11.4582 13.1743 11.4664 13.2059 11.4664 13.238V16.478C11.4664 16.8816 11.7724 17.228 12.1704 17.2482C12.2703 17.253 12.3702 17.2373 12.464 17.2019C12.5577 17.1666 12.6434 17.1123 12.7159 17.0423C12.7883 16.9724 12.8461 16.8883 12.8855 16.7951C12.925 16.7018 12.9455 16.6015 12.9456 16.5V12.4688C12.9457 12.3497 12.9178 12.2324 12.8642 12.1264C12.8107 12.0204 12.7331 11.9289 12.6377 11.8594L10.9275 10.6121C10.906 10.5965 10.8881 10.5764 10.8749 10.5532C10.8617 10.53 10.8536 10.5043 10.851 10.4776C10.8485 10.451 10.8516 10.4241 10.8602 10.3988C10.8687 10.3734 10.8825 10.3503 10.9007 10.3308L12.842 8.23128C12.862 8.20968 12.8866 8.19316 12.914 8.18307C12.9414 8.17297 12.9708 8.1696 12.9997 8.17321C13.0287 8.17682 13.0563 8.18731 13.0805 8.20384C13.1047 8.22037 13.1247 8.24246 13.1388 8.26831L14.1474 10.1143C14.2115 10.2313 14.3053 10.3288 14.4191 10.3966C14.5329 10.4644 14.6625 10.5001 14.7945 10.5H17.383C17.4832 10.5002 17.5824 10.4796 17.6745 10.4397C17.7667 10.3998 17.8498 10.3413 17.919 10.2678C17.9882 10.1942 18.0419 10.1073 18.0769 10.012C18.1119 9.91685 18.1274 9.81542 18.1226 9.71394C18.1032 9.31035 17.7602 9.00003 17.3622 9.00003Z" fill="#1D2E5B"/>
</symbol><symbol id="bus" viewBox="0 0 18 21">
  <g clip-path="url(#clip0)">
    <path d="M4.34046 13.9485C4.34046 13.5699 4.20185 13.2467 3.92462 12.9788C3.64739 12.711 3.31288 12.5771 2.92106 12.5771C2.52925 12.5771 2.19473 12.711 1.91751 12.9788C1.64028 13.2467 1.50167 13.5699 1.50167 13.9485C1.50167 14.3271 1.64028 14.6503 1.91751 14.9181C2.19473 15.186 2.52925 15.3199 2.92106 15.3199C3.31288 15.3199 3.64739 15.186 3.92462 14.9181C4.20185 14.6503 4.34046 14.3271 4.34046 13.9485ZM15.6956 13.9485C15.6956 13.5699 15.557 13.2467 15.2798 12.9788C15.0025 12.711 14.668 12.5771 14.2762 12.5771C13.8844 12.5771 13.5499 12.711 13.2727 12.9788C12.9954 13.2467 12.8568 13.5699 12.8568 13.9485C12.8568 14.3271 12.9954 14.6503 13.2727 14.9181C13.5499 15.186 13.8844 15.3199 14.2762 15.3199C14.668 15.3199 15.0025 15.186 15.2798 14.9181C15.557 14.6503 15.6956 14.3271 15.6956 13.9485ZM15.1855 9.70563L14.3871 5.59135C14.3501 5.42706 14.267 5.29313 14.1376 5.18956C14.0082 5.08599 13.8585 5.0342 13.6885 5.0342H3.50878C3.33875 5.0342 3.18905 5.08599 3.05968 5.18956C2.9303 5.29313 2.84714 5.42706 2.81017 5.59135L2.01176 9.70563C1.9748 9.91992 2.02655 10.1092 2.16701 10.2735C2.30747 10.4378 2.48859 10.5199 2.71037 10.5199H14.4869C14.7087 10.5199 14.8898 10.4378 15.0303 10.2735C15.1707 10.1092 15.2225 9.91992 15.1855 9.70563ZM12.6794 3.14849C12.6794 3.00563 12.6276 2.88421 12.5242 2.78421C12.4207 2.68421 12.295 2.63421 12.1471 2.63421H5.05015C4.9023 2.63421 4.77663 2.68421 4.67313 2.78421C4.56963 2.88421 4.51788 3.00563 4.51788 3.14849C4.51788 3.29135 4.56963 3.41278 4.67313 3.51278C4.77663 3.61278 4.9023 3.66278 5.05015 3.66278H12.1471C12.295 3.66278 12.4207 3.61278 12.5242 3.51278C12.6276 3.41278 12.6794 3.29135 12.6794 3.14849ZM17.115 10.9163V17.3771H15.6956V18.7485C15.6956 19.1271 15.557 19.4503 15.2798 19.7181C15.0025 19.986 14.668 20.1199 14.2762 20.1199C13.8844 20.1199 13.5499 19.986 13.2727 19.7181C12.9954 19.4503 12.8568 19.1271 12.8568 18.7485V17.3771H4.34046V18.7485C4.34046 19.1271 4.20185 19.4503 3.92462 19.7181C3.64739 19.986 3.31288 20.1199 2.92106 20.1199C2.52925 20.1199 2.19473 19.986 1.91751 19.7181C1.64028 19.4503 1.50167 19.1271 1.50167 18.7485V17.3771H0.0822754V10.9163C0.0822754 10.1163 0.174684 9.31992 0.359501 8.52706L1.50167 3.66278C1.5682 3.10563 1.9286 2.61635 2.58285 2.19492C3.2371 1.77349 4.08726 1.45564 5.13332 1.24135C6.17939 1.02706 7.33449 0.919922 8.59864 0.919922C9.86279 0.919922 11.0179 1.02706 12.064 1.24135C13.11 1.45564 13.9602 1.77349 14.6144 2.19492C15.2687 2.61635 15.6291 3.10563 15.6956 3.66278L16.86 8.52706C17.03 9.25563 17.115 10.0521 17.115 10.9163Z" fill="#1D2E5B"/>
  </g>
  
</symbol><symbol id="businessman" viewBox="0 0 28 28">
  <path d="M23.3758 23.2418V19.8933C23.3758 18.9558 23.2418 18.0182 22.7061 17.0806C22.1703 16.143 21.5006 15.3394 20.5631 14.8036C19.6255 14.1339 17.6164 14 16.6788 14L14.5358 16.277L15.3394 18.0182V22.0364L14 23.5097L12.6606 22.0364V18.0182L13.5982 16.277L11.3212 14C10.2497 14 8.24063 14.1339 7.30306 14.8036C6.36548 15.3394 5.82972 16.143 5.29396 17.0806C4.75821 18.0182 4.62427 18.8218 4.62427 19.8933V23.2418C4.62427 23.2418 8.10669 24.7151 14 24.7151C19.8934 24.7151 23.3758 23.2418 23.3758 23.2418Z" fill="#132576"/>
  <path d="M14 3.41895C11.4551 3.41895 9.98178 5.82985 10.3836 8.50864C10.7854 11.1874 12.1248 13.0626 14 13.0626C15.8751 13.0626 17.2145 11.1874 17.6163 8.50864C18.0181 5.69592 16.5448 3.41895 14 3.41895Z" fill="#132576"/>
</symbol><symbol id="call" viewBox="0 0 18 18">
  <path d="M8.97412 7.42388C8.97412 7.61288 9.12775 7.76138 9.3155 7.76138C9.70468 7.76138 10.0187 8.07526 10.0187 8.45663C10.0187 8.64225 10.1724 8.79413 10.3601 8.79413C10.5479 8.79413 10.7015 8.64225 10.7015 8.45663C10.7015 7.70064 10.0802 7.08638 9.3155 7.08638C9.12775 7.08638 8.97412 7.23826 8.97412 7.42388ZM14.5318 8.79413C14.723 8.79413 14.8732 8.64225 14.8732 8.45663C14.8732 5.42589 12.3811 2.96214 9.3155 2.96214C9.12775 2.96214 8.97412 3.114 8.97412 3.29964C8.97412 3.48526 9.12775 3.63714 9.3155 3.63714C12.0056 3.63714 14.1904 5.80051 14.1904 8.45663C14.1904 8.64225 14.344 8.79413 14.5318 8.79413Z" fill="#161C35"/>
  <path d="M12.1047 8.45663C12.1047 8.64225 12.2583 8.79413 12.446 8.79413C12.6338 8.79413 12.7874 8.64225 12.7874 8.45663C12.7874 6.56326 11.2307 5.02426 9.3156 5.02426C9.12785 5.02426 8.97422 5.17614 8.97422 5.36176C8.97422 5.55076 9.12785 5.69926 9.3156 5.69926C10.8552 5.69926 12.1047 6.93788 12.1047 8.45663ZM9.3156 0.900002C9.12785 0.900002 8.97422 1.05188 8.97422 1.2375C8.97422 1.42314 9.12785 1.575 9.3156 1.575C13.1561 1.575 16.2797 4.66314 16.2797 8.45663C16.2797 8.64225 16.43 8.79413 16.6211 8.79413C16.8089 8.79413 16.9625 8.64225 16.9625 8.45663C16.9625 4.28852 13.5316 0.900002 9.3156 0.900002ZM12.6509 12.0139L12.2037 12.2535C11.4492 12.6619 10.8621 13.7813 9.93111 12.9375L7.50006 10.5L5.39999 8.45663C4.3449 7.1235 5.5263 6.80625 5.93936 6.05701L6.18174 5.61827C6.45484 5.11875 6.55383 4.55851 6.47191 3.99825C6.3934 3.43801 6.13736 2.92838 5.7277 2.52338C5.2293 2.03064 4.56703 1.76064 3.86037 1.76064C3.15371 1.76064 2.48802 2.03064 1.9896 2.52338L1.81551 2.69888C0.893782 3.61014 0.787955 5.1795 1.51509 7.1235C2.20125 8.97975 3.58385 10.9913 5.39999 12.7868C8.16857 15.5239 11.2512 17.1 13.4634 17.1C14.3373 17.1 15.0781 16.8536 15.6038 16.3339L15.7813 16.1584C16.2763 15.669 16.5528 15.0143 16.5563 14.3089C16.5528 13.6204 16.2695 12.9454 15.7813 12.4628C14.9586 11.6494 13.6716 11.4671 12.6509 12.0139Z" fill="#161C35"/>
</symbol><symbol id="catalog-arrow" viewBox="0 0 10 5">
  <path d="M5 5L0.669872 0.5L9.33013 0.5L5 5Z" fill="#192144"/>
</symbol><symbol id="close" viewBox="0 0 14 14">
  <path d="M12.25 1.75L1.75 12.25" stroke="#192144" stroke-width="1.4" stroke-linecap="round" stroke-linejoin="round"/>
  <path d="M1.75 1.75L12.25 12.25" stroke="#192144" stroke-width="1.4" stroke-linecap="round" stroke-linejoin="round"/>
</symbol><symbol id="facebook" viewBox="0 0 11 21">
  <path d="M7.48786 20.8125H2.12929V11.1375H0V6.3525H2.06643C1.90929 4.185 2.30214 2.6025 3.26071 1.5225C3.71777 1.04316 4.27461 0.66015 4.89562 0.397985C5.51662 0.13582 6.18812 0.000268301 6.86714 0L10.6229 0V4.6125H7.66857C7.49452 5.1766 7.42799 5.76595 7.47214 6.3525H10.615V11.1375H7.47214L7.48786 20.8125ZM3.31571 19.6875H6.28571V10.0125H9.42857V7.5H6.28571V6.93C6.28571 5.43 6.28571 4.0875 7.07143 3.585L7.22071 3.4875H9.42857V1.125H6.89857C6.38444 1.11866 5.87465 1.21553 5.40225 1.40933C4.92986 1.60314 4.50541 1.88955 4.15643 2.25C3.37071 3.1725 3.04857 4.7175 3.29214 6.855L3.37071 7.4775H1.17857V10.0125H3.31571V19.6875Z" fill="#192144"/>
</symbol><symbol id="filter-expand" viewBox="0 0 17 3">
  <circle cx="1.5" cy="1.5" r="1.5" fill="#192144"/>
  <circle cx="8.5" cy="1.5" r="1.5" fill="#192144"/>
  <circle cx="15.5" cy="1.5" r="1.5" fill="#192144"/>
</symbol><symbol id="filter" viewBox="0 0 16 10">
  <rect x="7.17395" width="7.82609" height="2" fill="#192144"/>
  <rect x="7.17383" y="8" width="7.82609" height="2" fill="#192144"/>
  <rect y="4" width="7.82609" height="2" fill="#192144"/>
  <rect x="3.91309" width="1.95652" height="2" fill="#192144"/>
  <rect x="3.91309" y="8" width="1.95652" height="2" fill="#192144"/>
  <rect x="9.13037" y="4" width="1.95652" height="2" fill="#192144"/>
  <rect width="2.6087" height="2" fill="#192144"/>
  <rect y="8" width="2.6087" height="2" fill="#192144"/>
  <rect x="12.3914" y="4" width="2.6087" height="2" fill="#192144"/>
</symbol><symbol id="heart" viewBox="0 0 12 13">
  <path d="M6 5.66465L6.6705 4.25538C6.837 3.90641 7.12575 3.40462 7.5345 2.99894C7.9365 2.59955 8.418 2.32778 9 2.32778C10.257 2.32778 11.25 3.37233 11.25 4.62799C11.25 5.58194 10.8345 6.25546 9.849 7.28267C9.59625 7.54578 9.30825 7.83015 8.9895 8.14367C8.1585 8.96293 7.125 9.98226 6 11.3451C4.875 9.98226 3.8415 8.96293 3.0105 8.14367C2.69175 7.83015 2.403 7.54499 2.151 7.28267C1.1655 6.25546 0.75 5.58194 0.75 4.62799C0.75 3.37233 1.743 2.32778 3 2.32778C3.582 2.32778 4.0635 2.59955 4.4655 2.99894C4.87425 3.40462 5.163 3.90641 5.3295 4.25538L6 5.66465ZM6.294 12.1966C6.25788 12.2415 6.21286 12.2777 6.16209 12.3024C6.11131 12.3272 6.05599 12.34 6 12.34C5.94401 12.34 5.8887 12.3272 5.83792 12.3024C5.78714 12.2777 5.74212 12.2415 5.706 12.1966C4.50525 10.6983 3.4185 9.62699 2.52375 8.74551C0.975 7.21808 0 6.25782 0 4.62799C0 2.92253 1.3425 1.54004 3 1.54004C4.2 1.54004 5.03925 2.36717 5.553 3.12182C5.748 3.40935 5.8965 3.68585 6 3.90326C6.12975 3.63116 6.27918 3.36991 6.447 3.12182C6.96075 2.36638 7.8 1.54004 9 1.54004C10.6575 1.54004 12 2.92253 12 4.62799C12 6.25782 11.025 7.21808 9.47625 8.74551C8.5815 9.62778 7.49475 10.6991 6.294 12.1958V12.1966Z"/>
</symbol><symbol id="instagram" viewBox="0 0 24 24">
  <path d="M17.2802 2.40094C18.4252 2.40347 19.5225 2.85943 20.3321 3.66904C21.1417 4.47865 21.5977 5.57598 21.6002 6.72094V17.2809C21.5977 18.4259 21.1417 19.5232 20.3321 20.3328C19.5225 21.1424 18.4252 21.5984 17.2802 21.6009H6.7202C5.57691 21.5959 4.48204 21.1388 3.6745 20.3295C2.86696 19.5201 2.41233 18.4242 2.4098 17.2809V6.72094C2.41233 5.57764 2.86696 4.48175 3.6745 3.67241C4.48204 2.86308 5.57691 2.406 6.7202 2.40094H17.2802ZM17.2802 0.960938H6.7202C5.19256 0.960938 3.72748 1.56779 2.64727 2.648C1.56706 3.72821 0.960205 5.19329 0.960205 6.72094L0.960205 17.2809C0.960205 18.8086 1.56706 20.2737 2.64727 21.3539C3.72748 22.4341 5.19256 23.0409 6.7202 23.0409H17.2802C18.8078 23.0409 20.2729 22.4341 21.3531 21.3539C22.4333 20.2737 23.0402 18.8086 23.0402 17.2809V6.72094C23.0402 5.19329 22.4333 3.72821 21.3531 2.648C20.2729 1.56779 18.8078 0.960938 17.2802 0.960938V0.960938Z" fill="#192144"/>
  <path d="M12.0093 7.75642C12.8504 7.75642 13.6727 8.00584 14.372 8.47314C15.0714 8.94045 15.6165 9.60464 15.9384 10.3817C16.2603 11.1588 16.3445 12.0139 16.1804 12.8389C16.0163 13.6639 15.6112 14.4216 15.0165 15.0164C14.4217 15.6112 13.6639 16.0162 12.839 16.1803C12.014 16.3444 11.1589 16.2602 10.3818 15.9383C9.60472 15.6164 8.94052 15.0713 8.47321 14.3719C8.00591 13.6726 7.75649 12.8503 7.75649 12.0092C7.75522 11.4504 7.86436 10.8968 8.07764 10.3802C8.29091 9.8637 8.60412 9.39437 8.99928 8.99921C9.39444 8.60405 9.86377 8.29084 10.3803 8.07756C10.8969 7.86429 11.4504 7.75515 12.0093 7.75642ZM12.0093 6.31641C10.883 6.31451 9.78137 6.64678 8.84393 7.27115C7.90649 7.89553 7.17533 8.78396 6.74299 9.82402C6.31064 10.8641 6.19653 12.009 6.4151 13.1139C6.63368 14.2189 7.17511 15.2341 7.97088 16.0312C8.76664 16.8283 9.78099 17.3715 10.8855 17.5919C11.9901 17.8124 13.1352 17.7002 14.176 17.2696C15.2168 16.839 16.1065 16.1093 16.7324 15.173C17.3584 14.2366 17.6925 13.1356 17.6925 12.0092C17.6938 11.2621 17.5477 10.522 17.2626 9.8314C16.9776 9.14077 16.5592 8.51313 16.0313 7.98438C15.5035 7.45563 14.8765 7.03615 14.1864 6.74994C13.4962 6.46373 12.7564 6.31641 12.0093 6.31641Z" fill="#192144"/>
  <path d="M17.9043 7.41264C18.6148 7.41264 19.1907 6.8367 19.1907 6.12624C19.1907 5.41578 18.6148 4.83984 17.9043 4.83984C17.1939 4.83984 16.6179 5.41578 16.6179 6.12624C16.6179 6.8367 17.1939 7.41264 17.9043 7.41264Z" fill="#192144"/>
</symbol><symbol id="location" viewBox="0 0 21 21">
  <path d="M10.5 0C6.15169 0 2.625 3.52669 2.625 7.875C2.625 12.9334 6.42846 15.1449 7.26923 16.1538C9.28846 18.5769 9.40257 21 10.5 21C11.5974 21 11.7115 18.5769 13.7308 16.1538C14.5715 15.1449 18.375 12.9334 18.375 7.875C18.375 3.52669 14.8483 0 10.5 0ZM10.5 13.125C7.60069 13.125 5.25 10.7743 5.25 7.875C5.25 4.97569 7.60069 2.625 10.5 2.625C13.3993 2.625 15.75 4.97569 15.75 7.875C15.75 10.7743 13.3993 13.125 10.5 13.125ZM10.5 5.25C9.051 5.25 7.875 6.426 7.875 7.875C7.875 9.324 9.051 10.5 10.5 10.5C11.949 10.5 13.125 9.324 13.125 7.875C13.125 6.426 11.949 5.25 10.5 5.25Z" fill="#FFD74B"/>
  <ellipse cx="10.5" cy="7.875" rx="0.875001" ry="0.875" fill="#161C35"/>
</symbol><symbol id="logo-html-academy" viewBox="0 0 27 34">
<path d="M13.6426 0.0157537L13.5 0L0 1.40733V26.0129L13.5 34L27 26.0129V1.40733L13.6426 0.0157537ZM25.2344 25.0151L13.5 31.9573L1.76561 25.0151V14.9293L13.4507 21.8451L13.4701 23.0984L5.45351 18.3548L5.44295 19.5801L13.4894 24.3885L13.5088 25.675L5.46408 20.9174L5.45351 22.1427L13.5 26.9511L21.6239 22.1182V20.8929V16.909L25.2432 14.7595L25.2344 25.0151ZM25.2344 13.4519L22.0147 15.3319L20.5325 16.2071L13.4666 12.0201L13.456 13.2454L19.4957 16.818L19.4429 16.8495L19.3126 16.9247L18.4536 17.4166L13.4666 14.4689L13.456 15.6942L17.3921 18.0222L16.4591 18.6314L16.438 18.6436L13.4666 16.902L13.456 18.1273L15.4029 19.2615L13.4155 20.4483L1.7973 13.5762L13.4349 6.61831L25.2344 13.4519ZM25.2344 12.2266L13.4401 5.31075L1.76561 12.2196V2.9897L13.5 1.76442L25.2344 2.9897V12.2266Z" fill="#192144"/>
</symbol><symbol id="mail-nav" viewBox="0 0 16 14">
  <path d="M1.25925 2.60026L7.25925 6.36066C7.46085 6.48666 7.72165 6.54639 7.98405 6.54639C8.24645 6.54639 8.50725 6.48666 8.70885 6.36066L14.7088 2.60026C15.1 2.35479 15.4697 1.39999 14.7521 1.39999H1.21685C0.49925 1.39999 0.86885 2.35479 1.25925 2.60026ZM14.8905 4.65639L8.70885 8.41493C8.43685 8.58106 8.24645 8.60066 7.98405 8.60066C7.72165 8.60066 7.53125 8.58106 7.25925 8.41493C6.98725 8.24879 1.55285 4.92519 1.10885 4.65546C0.79685 4.46506 0.80005 4.68813 0.80005 4.85986V11.6667C0.80005 12.0587 1.25285 12.6 1.60005 12.6H14.4001C14.7473 12.6 15.2001 12.0587 15.2001 11.6667V4.86079C15.2001 4.68906 15.2033 4.46599 14.8905 4.65639Z" fill="#161C35"/>
</symbol><symbol id="mail" viewBox="0 0 19 13">
  <path fill-rule="evenodd" clip-rule="evenodd" d="M16.1393 10.4663L11.8089 6.5L16.1393 2.53365L15.5488 1.90264L9.24997 7.67188L2.95117 1.90264L2.36066 2.53365L6.69108 6.5L2.36066 10.4663L2.95117 11.0974L7.33081 7.08594L9.24997 8.84375L11.1691 7.08594L15.5488 11.0974L16.1393 10.4663ZM1.57593 0.25C0.76692 0.25 0.111084 0.948839 0.111084 1.80786V11.1921C0.111084 12.0525 0.7616 12.75 1.57593 12.75H16.924C17.733 12.75 18.3889 12.0512 18.3889 11.1921V1.80786C18.3889 0.947478 17.7383 0.25 16.924 0.25H1.57593Z"/>
</symbol><symbol id="mark" viewBox="0 0 9 9">
<path d="M2.79009 8.88571L0.25 6.125V5.75V5C0.25 5.0307 0.25 4.9693 0.25 5C0.25 4.83887 0.250052 4.625 0.250052 4.625V3.875L2.78302 6.31711C2.86985 6.40817 3.01121 6.40711 3.09804 6.31605L8.50005 0.5V2.05454V2.75C8.50005 3.125 8.50005 3.125 8.50005 3.125L3.8563 8.09057L3.85731 8.09163L3.10511 8.88465C3.01827 8.97571 2.87692 8.97571 2.79009 8.88571Z" fill="#161C35"/>
</symbol><symbol id="minus" viewBox="0 0 20 2">
  <line y1="1" x2="20" y2="1" stroke-width="2"/>
</symbol><symbol id="page-arrow" viewBox="0 0 10 18">
  <path d="M0 9L9.75 0.339745L9.75 17.6603L0 9Z" fill="#1D2E5B"/>
</symbol><symbol id="pick-bicycle" viewBox="0 0 23 22">
  <path d="M17.4297 19.25C16.6123 19.25 15.8133 19.0182 15.1336 18.5838C14.454 18.1494 13.9243 17.532 13.6115 16.8097C13.2987 16.0873 13.2168 15.2925 13.3763 14.5257C13.5358 13.7588 13.9294 13.0544 14.5073 12.5016C15.0853 11.9487 15.8217 11.5722 16.6234 11.4197C17.4251 11.2672 18.2561 11.3455 19.0112 11.6447C19.7664 11.9439 20.4119 12.4506 20.866 13.1006C21.3201 13.7507 21.5625 14.515 21.5625 15.2969C21.5613 16.345 21.1255 17.3498 20.3507 18.0909C19.5759 18.832 18.5254 19.2489 17.4297 19.25ZM17.4297 12.7188C16.8966 12.7188 16.3755 12.87 15.9323 13.1532C15.489 13.4365 15.1435 13.8392 14.9395 14.3103C14.7355 14.7814 14.6822 15.2997 14.7862 15.7998C14.8902 16.3 15.1469 16.7593 15.5238 17.1199C15.9008 17.4804 16.381 17.726 16.9039 17.8255C17.4267 17.9249 17.9686 17.8739 18.4611 17.6788C18.9536 17.4836 19.3746 17.1532 19.6708 16.7292C19.9669 16.3052 20.125 15.8068 20.125 15.2969C20.1242 14.6134 19.8399 13.9581 19.3346 13.4747C18.8294 12.9914 18.1443 12.7195 17.4297 12.7188Z"/>
  <path d="M5.57031 19.25C4.75292 19.25 3.95388 19.0182 3.27425 18.5838C2.59461 18.1494 2.0649 17.532 1.75209 16.8097C1.43929 16.0873 1.35745 15.2925 1.51691 14.5257C1.67638 13.7588 2.06999 13.0544 2.64797 12.5016C3.22596 11.9487 3.96236 11.5722 4.76404 11.4197C5.56573 11.2672 6.3967 11.3455 7.15187 11.6447C7.90705 11.9439 8.5525 12.4506 9.00662 13.1006C9.46074 13.7507 9.70313 14.515 9.70313 15.2969C9.70194 16.345 9.26614 17.3498 8.49134 18.0909C7.71655 18.832 6.66604 19.2489 5.57031 19.25ZM5.57031 12.7188C5.03723 12.7188 4.51612 12.87 4.07288 13.1532C3.62964 13.4365 3.28417 13.8392 3.08017 14.3103C2.87617 14.7814 2.82279 15.2997 2.92679 15.7998C3.03079 16.3 3.28749 16.7593 3.66444 17.1199C4.04139 17.4804 4.52165 17.726 5.04448 17.8255C5.56732 17.9249 6.10926 17.8739 6.60177 17.6788C7.09427 17.4836 7.51522 17.1532 7.81139 16.7292C8.10755 16.3052 8.26563 15.8068 8.26563 15.2969C8.26479 14.6134 7.98056 13.9581 7.47527 13.4747C6.96998 12.9914 6.2849 12.7195 5.57031 12.7188Z"/>
  <path d="M14.3749 5.50004C14.5642 5.50067 14.7518 5.46539 14.9268 5.39625C15.1018 5.3271 15.2608 5.22546 15.3944 5.09719C15.5281 4.96893 15.6339 4.8166 15.7056 4.64899C15.7774 4.48139 15.8137 4.30185 15.8124 4.12075C15.8145 3.94055 15.779 3.76176 15.708 3.59483C15.637 3.42791 15.532 3.2762 15.399 3.14857C15.2659 3.02094 15.1077 2.91996 14.9334 2.85154C14.7591 2.78311 14.5723 2.7486 14.3839 2.75004C14.1951 2.74948 14.0081 2.78449 13.8334 2.85306C13.6588 2.92164 13.5 3.02245 13.3661 3.14973C13.2322 3.27701 13.1258 3.42828 13.053 3.59488C12.9803 3.76149 12.9425 3.94018 12.9419 4.12075C12.9413 4.30131 12.9779 4.48022 13.0496 4.64726C13.1213 4.8143 13.2267 4.9662 13.3598 5.09428C13.4928 5.22236 13.651 5.32411 13.8251 5.39373C13.9993 5.46335 14.1861 5.49948 14.3749 5.50004Z"/>
  <path d="M16.511 8.25001H14.5453C14.513 8.25002 14.4814 8.24172 14.4536 8.226C14.4259 8.21027 14.4031 8.1877 14.3876 8.16063L12.9618 5.66114C12.8613 5.47539 12.7165 5.31488 12.5392 5.1926C12.3618 5.07031 12.1568 4.9897 11.9408 4.95727C11.7248 4.92484 11.5039 4.94152 11.2959 5.00595C11.0879 5.07038 10.8986 5.18075 10.7435 5.32813L7.60527 8.35313C7.34163 8.61053 7.19197 8.95531 7.1875 9.31564C7.1875 10.0633 7.75352 10.3297 8.01855 10.4801C9.29883 11.1856 10.2004 11.7017 10.695 11.9883C10.7213 12.0036 10.743 12.0251 10.7581 12.0508C10.7732 12.0764 10.7812 12.1054 10.7813 12.1348V15.1048C10.7813 15.4748 11.0786 15.7923 11.4654 15.8108C11.5625 15.8153 11.6596 15.8009 11.7507 15.7684C11.8418 15.736 11.9251 15.6862 11.9955 15.6221C12.0659 15.558 12.122 15.4809 12.1604 15.3954C12.1988 15.31 12.2186 15.218 12.2188 15.125V11.4297C12.2188 11.3206 12.1917 11.213 12.1397 11.1158C12.0877 11.0187 12.0122 10.9348 11.9196 10.8711L10.2575 9.72771C10.2366 9.71343 10.2192 9.69504 10.2064 9.67378C10.1935 9.65252 10.1856 9.62889 10.1832 9.60446C10.1807 9.58004 10.1837 9.55539 10.192 9.53218C10.2004 9.50897 10.2138 9.48773 10.2314 9.46989L12.1181 7.54532C12.1375 7.52552 12.1614 7.51038 12.1881 7.50112C12.2147 7.49187 12.2432 7.48878 12.2714 7.49209C12.2995 7.49539 12.3264 7.50502 12.3499 7.52017C12.3734 7.53532 12.3928 7.55557 12.4065 7.57927L13.3867 9.27138C13.449 9.37864 13.5402 9.468 13.6508 9.53019C13.7614 9.59237 13.8873 9.62511 14.0156 9.62501H16.5313C16.6286 9.62512 16.725 9.6063 16.8145 9.5697C16.9041 9.5331 16.9849 9.47948 17.0521 9.41209C17.1193 9.34471 17.1715 9.26496 17.2055 9.17769C17.2396 9.09042 17.2547 8.99745 17.25 8.90442C17.2311 8.53446 16.8978 8.25001 16.511 8.25001Z"/>
</symbol><symbol id="pick-bus" viewBox="0 0 23 22">
  <path d="M5.75127 14.9286C5.75127 14.4948 5.56417 14.1244 5.18998 13.8175C4.81579 13.5106 4.36426 13.3571 3.8354 13.3571C3.30654 13.3571 2.85501 13.5106 2.48082 13.8175C2.10663 14.1244 1.91953 14.4948 1.91953 14.9286C1.91953 15.3624 2.10663 15.7327 2.48082 16.0396C2.85501 16.3465 3.30654 16.5 3.8354 16.5C4.36426 16.5 4.81579 16.3465 5.18998 16.0396C5.56417 15.7327 5.75127 15.3624 5.75127 14.9286ZM21.0782 14.9286C21.0782 14.4948 20.8911 14.1244 20.5169 13.8175C20.1427 13.5106 19.6912 13.3571 19.1623 13.3571C18.6335 13.3571 18.182 13.5106 17.8078 13.8175C17.4336 14.1244 17.2465 14.4948 17.2465 14.9286C17.2465 15.3624 17.4336 15.7327 17.8078 16.0396C18.182 16.3465 18.6335 16.5 19.1623 16.5C19.6912 16.5 20.1427 16.3465 20.5169 16.0396C20.8911 15.7327 21.0782 15.3624 21.0782 14.9286ZM20.3897 10.067L19.312 5.35268C19.2621 5.16443 19.1499 5.01097 18.9753 4.8923C18.8006 4.77362 18.5986 4.71429 18.3691 4.71429H4.62869C4.39918 4.71429 4.19712 4.77362 4.0225 4.8923C3.84787 5.01097 3.73561 5.16443 3.68572 5.35268L2.60805 10.067C2.55815 10.3125 2.628 10.5294 2.81759 10.7176C3.00719 10.9059 3.25166 11 3.55101 11H19.4467C19.7461 11 19.9906 10.9059 20.1802 10.7176C20.3697 10.5294 20.4396 10.3125 20.3897 10.067ZM17.007 2.55357C17.007 2.38988 16.9371 2.25074 16.7974 2.13616C16.6577 2.02158 16.4881 1.96429 16.2885 1.96429H6.7092C6.50963 1.96429 6.34 2.02158 6.2003 2.13616C6.0606 2.25074 5.99075 2.38988 5.99075 2.55357C5.99075 2.71726 6.0606 2.8564 6.2003 2.97098C6.34 3.08557 6.50963 3.14286 6.7092 3.14286H16.2885C16.4881 3.14286 16.6577 3.08557 16.7974 2.97098C16.9371 2.8564 17.007 2.71726 17.007 2.55357ZM22.9941 11.4542V18.8571H21.0782V20.4286C21.0782 20.8624 20.8911 21.2327 20.5169 21.5396C20.1427 21.8465 19.6912 22 19.1623 22C18.6335 22 18.182 21.8465 17.8078 21.5396C17.4336 21.2327 17.2465 20.8624 17.2465 20.4286V18.8571H5.75127V20.4286C5.75127 20.8624 5.56417 21.2327 5.18998 21.5396C4.81579 21.8465 4.36426 22 3.8354 22C3.30654 22 2.85501 21.8465 2.48082 21.5396C2.10663 21.2327 1.91953 20.8624 1.91953 20.4286V18.8571H0.00366211V11.4542C0.00366211 10.5376 0.128393 9.625 0.377855 8.71652L1.91953 3.14286C2.00934 2.50446 2.49579 1.94382 3.37888 1.46094C4.26198 0.978051 5.4095 0.613839 6.82146 0.368304C8.23342 0.122768 9.79255 0 11.4989 0C13.2052 0 14.7643 0.122768 16.1763 0.368304C17.5882 0.613839 18.7358 0.978051 19.6189 1.46094C20.502 1.94382 20.9884 2.50446 21.0782 3.14286L22.6498 8.71652C22.8793 9.55134 22.9941 10.4639 22.9941 11.4542Z"/>
</symbol><symbol id="pick-plane" viewBox="0 0 23 22">
  <path d="M18.5347 1.18054C17.7301 1.36097 16.9218 1.54225 16.6212 2.03897L14.2941 6.41253L1.79919 9.21466L1.29295 10.6121L10.8544 11.4649L9.23212 15.2511L5.60602 16.0643L4.69562 17.5524L7.31158 17.8203L7.60988 19.0373C7.74352 19.4687 8.21259 19.7567 8.61297 19.6669L9.82168 19.3959L11.2228 21.6495L12.1332 20.1614L11.2383 16.5104L13.8637 13.3538L18.8731 21.647L19.8832 20.5659L16.8005 7.98894L19.6314 3.93169C19.9358 3.43411 19.7373 2.62405 19.5378 1.81018C19.439 1.40705 18.9351 1.09075 18.5347 1.18054Z"/>
</symbol><symbol id="pick-run" viewBox="0 0 23 22">
  <path d="M16.2917 5.49992C17.3502 5.49992 18.2083 4.67911 18.2083 3.66659C18.2083 2.65406 17.3502 1.83325 16.2917 1.83325C15.2331 1.83325 14.375 2.65406 14.375 3.66659C14.375 4.67911 15.2331 5.49992 16.2917 5.49992Z"/>
  <path d="M15.1196 10.0549C15.3396 10.3685 15.6552 10.6097 16.0234 10.7458C16.3917 10.8819 16.7949 10.9063 17.1781 10.8157L20.356 10.0558L19.8931 8.27747L16.7153 9.03739L15.3937 7.14264C15.1114 6.73799 14.6732 6.45658 14.1747 6.3598L10.489 5.65397C10.0766 5.57482 9.64852 5.62772 9.27076 5.80449C8.89299 5.98127 8.58658 6.2721 8.39883 6.63205L6.80992 9.67172L8.52438 10.4921L10.1133 7.45155L11.9983 7.81272L7.12425 15.5833H2.875V17.4166H7.12425C7.79317 17.4166 8.42279 17.0756 8.76779 16.5266L10.6059 13.5969L15.5595 14.5447L17.2998 19.5396L19.1168 18.9594L17.3775 13.9654C17.2701 13.6588 17.0802 13.3847 16.8268 13.1706C16.5734 12.9566 16.2656 12.8102 15.9342 12.7462L13.0218 12.1898L14.72 9.48197L15.1196 10.0549Z"/>
</symbol><symbol id="plane" viewBox="0 0 21 23">
  <g clip-path="url(#clip0)">
    <path d="M16.7831 2.09314C16.0546 2.26635 15.3227 2.44038 15.0504 2.91723L12.9433 7.11585L1.62916 9.8059L1.17076 11.1474L9.82861 11.9662L8.35967 15.6009L5.07624 16.3816L4.25187 17.8101L6.62062 18.0673L6.89073 19.2357C7.01174 19.6498 7.43649 19.9263 7.79903 19.8401L8.89351 19.5799L10.1622 21.7433L10.9866 20.3148L10.1763 16.8098L12.5535 13.7795L17.0895 21.741L18.0042 20.7031L15.2128 8.62921L17.7762 4.73424C18.0519 4.25657 17.8721 3.47891 17.6914 2.69759C17.6019 2.31059 17.1457 2.00694 16.7831 2.09314Z" fill="#101D41"/>
  </g>
  
</symbol><symbol id="plus-more" viewBox="0 0 18 18">
  <rect y="8.30762" width="18" height="1.38461" rx="0.692307" fill="#1D2E5B"/>
  <rect x="8.30774" y="18" width="18" height="1.38461" rx="0.692307" transform="rotate(-90 8.30774 18)" fill="#1D2E5B"/>
</symbol><symbol id="plus" viewBox="0 0 20 20">
  <line y1="10" x2="20" y2="10" stroke-width="2"/>
  <line x1="10" y1="20" x2="10" stroke-width="2"/>
</symbol><symbol id="run" viewBox="0 0 21 24">
  <path d="M14.9758 5.75992C15.9264 5.75992 16.697 4.90031 16.697 3.83992C16.697 2.77954 15.9264 1.91992 14.9758 1.91992C14.0252 1.91992 13.2546 2.77954 13.2546 3.83992C13.2546 4.90031 14.0252 5.75992 14.9758 5.75992Z" fill="#1D2E5B"/>
  <path d="M13.9233 10.5302C14.1209 10.8586 14.4043 11.1113 14.735 11.2538C15.0657 11.3964 15.4277 11.4219 15.7719 11.327L18.6256 10.5312L18.21 8.66881L15.3562 9.46465L14.1695 7.48033C13.9159 7.05655 13.5224 6.76184 13.0748 6.66049L9.76493 5.92129C9.39465 5.83839 9.01021 5.89379 8.67097 6.07893C8.33173 6.26406 8.05657 6.56863 7.88797 6.94561L6.4611 10.129L8.00071 10.9882L9.42758 7.80385L11.1204 8.18209L6.74338 16.32H2.92749V18.24H6.74338C7.34407 18.24 7.90949 17.8829 8.2193 17.3078L9.86993 14.2397L14.3184 15.2323L15.8812 20.4634L17.5129 19.8557L15.9509 14.6256C15.8545 14.3045 15.684 14.0174 15.4564 13.7933C15.2289 13.5691 14.9524 13.4158 14.6548 13.3488L12.0395 12.7661L13.5645 9.93025L13.9233 10.5302Z" fill="#1D2E5B"/>
</symbol><symbol id="select-arrow-next" viewBox="0 0 8 11">
<path d="M3.64645 10.3536C3.84171 10.5488 4.15829 10.5488 4.35355 10.3536L7.53553 7.17157C7.7308 6.97631 7.7308 6.65973 7.53553 6.46447C7.34027 6.2692 7.02369 6.2692 6.82843 6.46447L4 9.29289L1.17157 6.46447C0.976311 6.2692 0.659728 6.2692 0.464466 6.46447C0.269204 6.65973 0.269204 6.97631 0.464466 7.17157L3.64645 10.3536ZM3.5 0L3.5 10H4.5L4.5 0L3.5 0Z" fill="#CBCED9"/>
</symbol><symbol id="select-cancel" viewBox="0 0 9 9">
  <path d="M7.875 1.125L1.125 7.875" stroke-linecap="round" stroke-linejoin="round"/>
  <path d="M1.125 1.125L7.875 7.875" stroke-linecap="round" stroke-linejoin="round"/>
</symbol><symbol id="select-clear" viewBox="0 0 9 9">
<path d="M7.875 1.125L1.125 7.875" stroke="#AFB0B5" stroke-linecap="round" stroke-linejoin="round"/>
<path d="M1.125 1.125L7.875 7.875" stroke="#AFB0B5" stroke-linecap="round" stroke-linejoin="round"/>
</symbol><symbol id="telephone" viewBox="0 0 19 17">
  <path fill-rule="evenodd" clip-rule="evenodd" d="M9.49995 1.08615C6.7035 1.08615 3.90033 1.55882 2.88322 2.50093C2.03934 3.28252 1.75804 4.66329 1.66321 5.53753C1.66321 5.53753 1.65015 5.62393 1.65015 5.66109C1.65015 6.00391 1.94445 6.27887 2.30427 6.27887C2.34678 6.27887 3.92002 6.15837 4.86851 6.08425C4.89134 6.08112 4.91434 6.07806 4.93716 6.07191C5.29043 6.0627 5.57505 5.7908 5.57505 5.45413L5.57822 4.237C5.57822 3.86014 5.90214 3.55737 6.3012 3.55737H12.6987C13.0978 3.55737 13.4218 3.86011 13.4218 4.237L13.425 5.45413C13.425 5.7908 13.7095 6.0627 14.0628 6.07191C14.0854 6.0781 14.1085 6.08112 14.1315 6.08425C15.0801 6.15834 16.6533 6.27887 16.6957 6.27887C17.0553 6.27887 17.3499 6.00391 17.3499 5.66109C17.3499 5.62393 17.3368 5.53753 17.3368 5.53753C17.2419 4.66329 16.9609 3.28255 16.117 2.50093C15.0996 1.55882 12.2964 1.08615 9.49995 1.08615ZM9.49995 9.11773C8.7771 9.11773 8.19164 9.67064 8.19164 10.3533C8.19164 11.036 8.7771 11.5889 9.49995 11.5889C10.2228 11.5889 10.8082 11.036 10.8082 10.3533C10.8082 9.67064 10.2228 9.11773 9.49995 9.11773ZM8.51873 6.33752V5.56528C8.51873 5.13902 8.15236 4.79304 7.70106 4.79304C7.24977 4.79304 6.8834 5.13905 6.8834 5.56528V6.33752L2.47095 10.7889C2.16689 11.07 1.97713 11.4622 1.97713 11.8948V13.1335C1.97713 13.8162 2.56264 14.3691 3.28545 14.3691H3.61254V15.1414C3.61254 15.5677 3.97895 15.9136 4.43025 15.9136C4.88154 15.9136 5.24792 15.5677 5.24792 15.1414V14.3691H13.752V15.1414C13.752 15.5677 14.1182 15.9136 14.5697 15.9136C15.021 15.9136 15.3873 15.5677 15.3873 15.1414V14.3691H15.7144C16.4373 14.3691 17.0227 13.8162 17.0227 13.1335V11.8948C17.0227 11.4622 16.833 11.07 16.5289 10.7889L12.1166 6.33752V5.56528C12.1166 5.13902 11.7502 4.79304 11.2989 4.79304C10.8476 4.79304 10.4812 5.13905 10.4812 5.56528V6.33752H8.51873ZM9.49995 7.8821C10.9456 7.8821 12.1166 8.98799 12.1166 10.3533C12.1166 11.7187 10.9457 12.8247 9.49995 12.8247C8.05426 12.8247 6.88336 11.7187 6.88336 10.3533C6.88336 8.98795 8.05426 7.8821 9.49995 7.8821Z"/>
</symbol><symbol id="user" viewBox="0 0 24 24">
  <path opacity="0.5" d="M7.5 6.73684C7.5 9.34842 9.519 11.4737 12 11.4737C14.481 11.4737 16.5 9.34842 16.5 6.73684C16.5 4.12526 14.481 2 12 2C9.519 2 7.5 4.12526 7.5 6.73684ZM20 22H21V20.9474C21 16.8853 17.859 13.5789 14 13.5789H10C6.14 13.5789 3 16.8853 3 20.9474V22H20Z" fill="#192144"/>
</symbol><symbol id="vkontakte" viewBox="0 0 23 12">
  <path d="M17.7664 11.8331C17.219 11.8207 16.6854 11.6573 16.2232 11.3606C15.7407 11.031 15.2975 10.6459 14.9026 10.2132C14.5761 9.88315 14.0345 9.32815 13.8268 9.32815C13.619 9.32815 13.4706 10.0181 13.478 10.5056C13.4812 10.8422 13.3564 11.167 13.1293 11.4131C12.8712 11.6263 12.5561 11.7569 12.2242 11.7881H10.7997C8.75222 11.7426 6.79178 10.9425 5.28708 9.53815C2.55676 7.01065 0.21224 2.18065 0.115789 1.97065C0.0237889 1.79521 -0.0147389 1.59616 0.00506792 1.3986C0.0248747 1.20105 0.102128 1.01386 0.227079 0.860649C0.509857 0.622256 0.867951 0.494496 1.23611 0.500649H4.26321H4.35224C4.6027 0.537588 4.84277 0.626997 5.05708 0.763149C5.25875 0.899848 5.42022 1.08899 5.5245 1.31065C5.8444 2.00295 6.2113 2.67204 6.62256 3.31315C7.5945 4.81315 8.02482 5.15815 8.18063 5.23315C8.35396 4.52985 8.40169 3.80091 8.3216 3.08065C8.3476 2.7526 8.29412 2.4231 8.16579 2.12065C8.00289 1.98893 7.80288 1.91278 7.5945 1.90315L7.05289 1.38565C6.94901 0.890649 7.49063 0.463149 7.86902 0.298149C8.62414 0.0589723 9.41638 -0.0376377 10.2061 0.013149H10.7329C11.2686 -0.000953053 11.8041 0.0494006 12.328 0.163149C13.5893 0.433149 13.5448 1.46065 13.4929 2.64565C13.4929 2.99065 13.4558 3.39565 13.4558 3.86065C13.4558 3.97315 13.4558 4.09315 13.4558 4.22065C13.4266 4.54717 13.4492 4.87631 13.5226 5.19565C14.1402 4.67331 14.6604 4.04337 15.0584 3.33565C15.4879 2.66645 15.865 1.96431 16.1861 1.23565C16.2839 1.00519 16.4516 0.812043 16.6649 0.684009C16.8782 0.555974 17.1262 0.499653 17.3732 0.523149H20.5487C20.6425 0.514104 20.7369 0.514104 20.8306 0.523149C21.5726 0.523149 22.0103 0.740649 22.1884 1.16065C22.3664 1.58065 22.3145 2.40565 20.4374 4.61815L19.6955 5.46565C19.336 5.81847 19.0264 6.21976 18.7755 6.65815C19.0565 6.98108 19.3754 7.2682 19.7251 7.51315C20.5778 8.16264 21.3283 8.93894 21.951 9.81565C22.097 9.98613 22.1925 10.1948 22.2266 10.4176C22.2608 10.6405 22.2321 10.8685 22.1439 11.0756C21.9884 11.3051 21.7803 11.4931 21.5375 11.6237C21.2946 11.7542 21.0241 11.8235 20.749 11.8256L17.9371 11.8631L17.7664 11.8331ZM13.8268 8.20315C14.4945 8.20315 15.0732 8.79565 15.689 9.41815C16.0217 9.78534 16.3951 10.1125 16.8019 10.3931C17.1096 10.6 17.4711 10.7096 17.8406 10.7081H17.9148L20.7342 10.6706C20.8732 10.6626 21.0094 10.6269 21.1348 10.5656L21.0606 10.4456C20.499 9.67196 19.8292 8.98479 19.0722 8.40565C18.1893 7.65565 17.7368 7.30315 17.6848 6.72565C17.6329 6.14815 18.0484 5.64565 18.8793 4.69315L19.6213 3.86065C20.2477 3.21479 20.7619 2.46681 21.1422 1.64815C20.9767 1.63823 20.8107 1.63823 20.6451 1.64815H17.4029C17.3443 1.6349 17.2835 1.6349 17.2248 1.64815C16.8814 2.44423 16.4719 3.20947 16.0006 3.93565C14.5984 6.05065 13.938 6.33565 13.4706 6.33565C13.3257 6.33565 13.183 6.29959 13.0551 6.23065C12.3132 5.80315 12.3132 4.85065 12.3577 4.16065C12.3577 4.04815 12.3577 3.93565 12.3577 3.83815C12.3577 3.35065 12.3577 2.93065 12.3948 2.57065C12.4542 1.31065 12.3948 1.30315 12.1129 1.23565C11.6586 1.14491 11.1958 1.10467 10.7329 1.11565H10.221C9.74988 1.10581 9.27872 1.13088 8.81127 1.19065C8.88206 1.24338 8.94459 1.30659 8.99676 1.37815C9.30278 1.8659 9.4554 2.43595 9.4345 3.01315C9.53095 4.25065 9.47902 5.86315 8.69256 6.25315C8.5533 6.31903 8.40115 6.35235 8.2474 6.35065C7.5574 6.35065 6.87482 5.69065 5.70998 3.90565C5.26298 3.22218 4.86383 2.50794 4.51547 1.76815L4.45611 1.69315C4.38118 1.65454 4.30126 1.62677 4.21869 1.61065H1.25095H1.19901C1.63676 2.52565 3.71418 6.57565 6.03643 8.69815C7.34044 9.90918 9.02993 10.6088 10.7997 10.6706H12.1722C12.2422 10.6555 12.3097 10.6303 12.3726 10.5956C12.3726 10.5956 12.3726 10.5956 12.3726 10.5281C12.3726 10.3256 12.3726 8.57815 13.5448 8.27815C13.6356 8.24202 13.7302 8.21685 13.8268 8.20315Z" fill="#192144"/>
</symbol></svg>